<?xml version="1.0" encoding="utf-8"?>
<!-- Generator: Adobe Illustrator 16.0.4, SVG Export Plug-In . SVG Version: 6.00 Build 0)  -->
<!DOCTYPE svg PUBLIC "-//W3C//DTD SVG 1.1//EN" "http://www.w3.org/Graphics/SVG/1.1/DTD/svg11.dtd">
<svg version="1.1" id="Layer_1" xmlns="http://www.w3.org/2000/svg" xmlns:xlink="http://www.w3.org/1999/xlink" x="0px" y="0px"
	 width="188.102px" height="188.104px" viewBox="0 0 188.102 188.104" enable-background="new 0 0 188.102 188.104"
	 xml:space="preserve">
<circle fill="#EE5840" cx="94.051" cy="94.051" r="94.051"/>
<path fill="#FFFFFF" d="M152.909,94.029l-29.424,29.426c-7.533,7.533-17.938,12.193-29.428,12.193
	c-11.487,0-21.891-4.66-29.425-12.193L35.194,94.029l29.438-29.425C72.166,57.071,82.57,52.41,94.057,52.41
	c11.127,0,21.242,4.377,28.709,11.49C123.252,64.367,152.909,94.029,152.909,94.029z"/>
<path fill="#A6D8DF" d="M122.618,94.029c0,15.773-12.805,28.553-28.563,28.553c-15.766,0-28.557-12.779-28.557-28.553
	c0-15.773,12.791-28.55,28.557-28.55C109.813,65.479,122.618,78.256,122.618,94.029z"/>
<circle fill="#212121" cx="94.052" cy="94.029" r="13.503"/>
<path fill="#FFFFFF" d="M91.493,84.482c0,3.861-3.13,6.989-6.982,6.989c-3.857,0-6.974-3.128-6.974-6.989
	c0-3.851,3.117-6.98,6.974-6.98C88.363,77.501,91.493,80.631,91.493,84.482z"/>
<path fill="#FFFFFF" d="M86.996,96.816c0,1.37-1.114,2.48-2.485,2.48c-1.366,0-2.483-1.11-2.483-2.48
	c0-1.366,1.117-2.477,2.483-2.477C85.882,94.34,86.996,95.45,86.996,96.816z"/>
</svg>
