<?xml version="1.0" encoding="utf-8"?>
<!-- Generator: Adobe Illustrator 16.0.4, SVG Export Plug-In . SVG Version: 6.00 Build 0)  -->
<!DOCTYPE svg PUBLIC "-//W3C//DTD SVG 1.1//EN" "http://www.w3.org/Graphics/SVG/1.1/DTD/svg11.dtd">
<svg version="1.1" id="Layer_1" xmlns="http://www.w3.org/2000/svg" xmlns:xlink="http://www.w3.org/1999/xlink" x="0px" y="0px"
	 width="186.941px" height="186.941px" viewBox="0 0 186.941 186.941" enable-background="new 0 0 186.941 186.941"
	 xml:space="preserve">
<circle fill="#3E9EE0" cx="93.47" cy="93.47" r="93.47"/>
<g>
	<path fill="#072C65" d="M103.38,82.553H83.56c3.134,1.047,6.458,1.621,9.91,1.621C96.921,84.174,100.248,83.6,103.38,82.553z"/>
	<path fill="#072C65" d="M58.714,82.553V65.22c0-4.238-3.447-7.686-7.685-7.686v3.073c2.542,0,4.61,2.069,4.61,4.612v20.407h8.354
		c0.205-1.042,0.434-2.065,0.686-3.074H58.714z"/>
	<path fill="#072C65" d="M131.302,65.22c0-2.543,2.068-4.612,4.609-4.612v-3.073c-4.238,0-7.684,3.448-7.684,7.686v17.333h-5.967
		c0.25,1.009,0.482,2.032,0.684,3.074h8.357V65.22z"/>
	<path fill="#072C65" d="M128.228,121.246v17.336c0,4.238,3.445,7.682,7.684,7.682v-3.072c-2.541,0-4.609-2.068-4.609-4.609v-20.41
		h-9.992c-0.326,1.047-0.68,2.07-1.059,3.074H128.228z"/>
	<path fill="#072C65" d="M55.64,118.171v20.41c0,2.541-2.068,4.609-4.61,4.609v3.072c4.237,0,7.685-3.443,7.685-7.682v-17.336h7.977
		c-0.378-1.004-0.732-2.027-1.059-3.074H55.64z"/>
	<path fill="#072C65" d="M51.029,100.363v3.074H62.9c-0.071-1.014-0.112-2.041-0.138-3.074H51.029z"/>
	<path fill="#072C65" d="M135.912,103.437v-3.074h-11.732c-0.025,1.033-0.066,2.061-0.139,3.074H135.912z"/>
</g>
<path fill="#072C65" d="M118.566,72.015c-6.197,7.474-15.137,12.159-25.096,12.159c-9.958,0-18.896-4.685-25.094-12.159
	c5.558-11.792,14.718-19.5,25.094-19.5C103.847,52.515,113.007,60.223,118.566,72.015z"/>
<g>
	<circle fill="#FFFFFF" cx="84.968" cy="65.22" r="3.688"/>
	<circle fill="#FFFFFF" cx="101.973" cy="65.22" r="3.688"/>
</g>
<g>
	<path fill="#072C65" d="M102.232,54.086h-2.801c0-7.465,6.074-13.538,13.537-13.538v2.801
		C107.048,43.349,102.232,48.165,102.232,54.086z"/>
	<path fill="#072C65" d="M86.737,54.086h-2.801c0-5.921-4.815-10.737-10.734-10.737v-2.801
		C80.666,40.548,86.737,46.621,86.737,54.086z"/>
</g>
<path fill="#F26D40" d="M93.459,84.187c-3.45,0-6.776-0.574-9.912-1.624c-5.909-1.973-11.133-5.653-15.181-10.537
	c-1.525,3.225-2.761,6.772-3.697,10.537c-0.252,1.011-0.479,2.033-0.685,3.074c-0.81,4.126-1.263,8.479-1.263,12.995
	c0,0.584,0.016,1.162,0.03,1.742c0.024,1.031,0.067,2.059,0.138,3.074c0.362,5.221,1.308,10.178,2.731,14.734
	c0.326,1.047,0.682,2.07,1.059,3.074c5.273,14.014,15.285,23.482,26.779,23.482V84.187z"/>
<path fill="#EE6236" d="M118.554,72.027c-4.047,4.883-9.271,8.564-15.184,10.537c-3.133,1.049-6.461,1.624-9.912,1.624v60.553
	c11.498,0,21.509-9.469,26.781-23.482c0.379-1.004,0.734-2.027,1.061-3.074c1.424-4.557,2.369-9.514,2.73-14.734
	c0.07-1.016,0.113-2.043,0.139-3.074c0.014-0.58,0.029-1.158,0.029-1.742c0-4.516-0.455-8.869-1.264-12.995
	c-0.203-1.041-0.434-2.063-0.684-3.074C121.314,78.799,120.078,75.252,118.554,72.027z"/>
<path opacity="0.15" fill="#FFFFFF" d="M93.459,84.187c-3.45,0-6.776-0.574-9.912-1.624c-5.909-1.973-11.133-5.653-15.181-10.537
	c-1.525,3.225-2.761,6.772-3.697,10.537c-0.252,1.011-0.479,2.033-0.685,3.074c-0.81,4.126-1.263,8.479-1.263,12.995
	c0,0.584,0.016,1.162,0.03,1.742c0.024,1.031,0.067,2.059,0.138,3.074c0.362,5.221,1.308,10.178,2.731,14.734
	c0.326,1.047,0.682,2.07,1.059,3.074c5.273,14.014,15.285,23.482,26.779,23.482V84.187z"/>
</svg>
