<?xml version="1.0" encoding="utf-8"?>
<!-- Generator: Adobe Illustrator 16.0.4, SVG Export Plug-In . SVG Version: 6.00 Build 0)  -->
<!DOCTYPE svg PUBLIC "-//W3C//DTD SVG 1.1//EN" "http://www.w3.org/Graphics/SVG/1.1/DTD/svg11.dtd">
<svg version="1.1" id="Layer_1" xmlns="http://www.w3.org/2000/svg" xmlns:xlink="http://www.w3.org/1999/xlink" x="0px" y="0px"
	 width="187.814px" height="187.815px" viewBox="0 0 187.814 187.815" enable-background="new 0 0 187.814 187.815"
	 xml:space="preserve">
<circle fill="#F8D14E" cx="93.907" cy="93.908" r="93.907"/>
<g>
	<rect x="92.895" y="40.296" fill="#404B5A" width="2.026" height="83.185"/>
	<path fill="#343C4A" d="M92.516,40.296v-4.004c0-0.371,0.147-0.722,0.412-0.982c0.253-0.258,0.61-0.407,0.979-0.407
		c0.374,0,0.725,0.145,0.984,0.41c0.258,0.255,0.407,0.613,0.407,0.979v4.004H92.516z"/>
	<path fill="#343C4A" d="M102.454,141.532c-5.479,0-9.938-4.457-9.938-9.938v-8.113h2.783v8.113c0,3.943,3.21,7.154,7.154,7.154
		c3.945,0,7.154-3.211,7.154-7.154c0-0.766,0.625-1.389,1.388-1.389c0.769,0,1.393,0.623,1.393,1.389
		C112.388,137.075,107.933,141.532,102.454,141.532z"/>
</g>
<path fill="#2D9FDB" d="M93.614,42.632c-12.496,0.332-25.01,21.555-25.032,41.743c-2.918-2.757-7.5-4.537-12.654-4.537
	c-4.982,0-9.426,1.661-12.356,4.265C48.135,60.564,68.776,42.77,93.614,42.632z"/>
<path fill="#2887B2" d="M144.236,84.103c-2.922-2.604-7.364-4.265-12.348-4.265c-5.155,0-9.736,1.779-12.65,4.537
	c-0.028-20.188-12.541-41.411-25.037-41.743C119.037,42.77,139.681,60.564,144.236,84.103z"/>
<path fill="#2887B2" d="M93.908,42.628v41.756c-2.913-2.764-7.5-4.546-12.659-4.546c-5.157,0-9.746,1.782-12.657,4.546l-0.009-0.009
	c0.021-20.188,12.536-41.411,25.032-41.743C93.711,42.628,93.806,42.628,93.908,42.628z"/>
<path fill="#2D9FDB" d="M119.238,84.375l-0.014,0.009c-2.914-2.764-7.496-4.546-12.657-4.546c-5.159,0-9.748,1.782-12.659,4.546
	V42.628c0.097,0,0.197,0,0.293,0.004C106.697,42.964,119.209,64.188,119.238,84.375z"/>
</svg>
